# xmcd
#
# Track frame offsets:
#	150
#	15037
#	26196
#	48620
#	69207
#	93665
#	105988
#	120546
#	134616
#	148904
#	170233
#	181468
#	198838
#	211071
#
# Disc length: 3017 seconds
#
# Revision: 0
# Processed by: cddbd v1.5.2PL0 Copyright (c) Steve Scherf et al.
# Submitted via: audiograbber 1.83.01
#
DISCID=c50bc70e
DTITLE=Carolina Roustabout - Hell Among The Yearlings
DYEAR=2006
DGENRE=Bluegrass
TTITLE0=Lady Of The Lake
TTITLE1=Dear Old Dixie
TTITLE2=Falling Leaves
TTITLE3=Lee Highway Blues
TTITLE4=You Are My Sunshine
TTITLE5=Earl's Breakdown
TTITLE6=Trail Of Sorrow
TTITLE7=Blue Mountain Waltz
TTITLE8=Hell Among The Yearlings
TTITLE9=We Live In Two Different Worlds
TTITLE10=Pike County Breakdown
TTITLE11=Your Cheating Heart
TTITLE12=Sweet Dixie
TTITLE13=Teardrop On A Rose
EXTD=
EXTT0=
EXTT1=
EXTT2=
EXTT3=
EXTT4=
EXTT5=
EXTT6=
EXTT7=
EXTT8=
EXTT9=
EXTT10=
EXTT11=
EXTT12=
EXTT13=
PLAYORDER=
